<svg width="255" height="45" viewBox="0 0 255 45" fill="none" xmlns="http://www.w3.org/2000/svg">
<circle cx="22.29" cy="22.29" r="21.54" fill="#C4C4C4" stroke="white" stroke-width="0.5"/>
<circle cx="22.2903" cy="22.2903" r="21.2903" fill="#112488"/>
<circle cx="22.2903" cy="22.2903" r="21.2903" fill="url(#paint0_radial_637_2)"/>
<mask id="mask0_637_2" style="mask-type:alpha" maskUnits="userSpaceOnUse" x="1" y="1" width="43" height="43">
<circle cx="22.2903" cy="22.2903" r="21.2903" fill="#112488"/>
</mask>
<g mask="url(#mask0_637_2)">
<path d="M17.6062 1.77624C16.9028 1.53859 15.359 1.67722 14.675 1.77624C8.51947 4.7469 5.29513 8.90582 5.29513 9.49995C5.29513 10.0941 4.70889 12.7677 4.70889 12.1735C4.70889 11.6982 4.31806 11.1833 4.12265 10.9853C3.92723 11.2823 3.36053 12.1141 2.65704 13.0647C1.77767 14.253 2.65704 14.8471 2.65704 15.1442C2.65704 15.4413 3.24328 17.8178 2.95016 18.4119C2.71566 18.8872 1.87538 18.0158 1.48455 17.5207C0.605183 18.4119 1.19143 24.3532 1.19143 24.6503C1.19143 24.9474 2.36391 25.8386 2.65704 25.8386C2.89153 25.8386 2.75474 25.2444 2.65704 24.9474C2.75474 24.6503 2.95016 23.8779 2.95016 23.165C2.95016 22.2738 2.95016 22.2738 3.82952 21.0855C4.70889 19.8973 4.41577 18.1149 4.70889 17.8178C5.00201 17.5207 5.00201 17.5207 5.29513 17.5207C5.58825 17.5207 5.58825 17.2237 6.46762 16.6295C7.34698 16.0354 6.46762 15.7383 6.46762 15.4413C6.46762 15.2036 5.68596 14.5501 5.29513 14.253C5.58825 14.451 6.35037 14.8471 7.05386 14.8471C7.93323 14.8471 9.10571 14.8471 9.69196 15.1442C10.2782 15.4413 11.1576 16.0354 13.2094 15.7383C15.2613 15.4413 14.675 16.0354 14.9681 16.0354C16.1406 18.4119 16.6292 18.4119 16.7269 18.1149C16.8246 17.9168 17.02 17.4613 17.02 17.2237C17.02 16.9266 17.3131 16.6295 17.3131 16.0354C17.3131 15.4413 18.1925 15.1442 19.0719 14.8471C19.9512 14.5501 19.6581 13.6589 19.9512 13.0647C20.2443 12.4706 19.9512 12.1735 19.9512 11.5794C19.9512 10.9853 20.5375 11.2823 21.1237 10.9853C21.7099 10.6882 22.5893 10.3911 23.1756 10.0941C23.7618 9.79702 24.0549 9.20289 24.348 8.90582C24.6412 8.60875 24.348 8.01462 23.7618 7.71756C23.1756 7.42049 24.348 6.82636 24.9343 6.52929C25.5205 6.23223 25.5205 6.52929 26.3999 5.93516C27.1034 5.45986 28.2563 5.73712 28.7449 5.93516L28.1586 7.71756C28.4517 7.42049 29.2725 6.64812 30.2105 5.93516C31.1485 5.2222 33.9234 4.84592 35.1936 4.7469C34.0211 4.15277 33.7279 3.55864 32.5555 3.55864C31.383 3.55864 30.7967 3.8557 29.9174 3.8557C29.038 3.8557 28.7449 3.8557 27.8655 3.26157C26.9861 2.66744 25.8137 2.66744 25.5205 2.9645C25.2274 3.26157 23.7618 2.9645 22.8824 2.9645C22.0031 2.9645 21.4168 2.66744 21.1237 2.66744C20.8892 2.66744 19.6581 2.86548 19.0719 2.9645C18.9741 2.86548 18.5442 2.4892 17.6062 1.77624Z" fill="#26A13D"/>
<path d="M17.7971 39.1076C13.635 38.8865 11.3167 39.5684 10.6777 39.9371C10.6777 40.49 10.6777 41.0429 15.8804 42.9782C21.083 44.9135 27.3809 43.2547 27.6547 42.9782C27.9286 42.7018 27.9286 42.4253 29.0239 41.5959C29.9001 40.9323 29.7541 40.5822 29.5715 40.49C29.2064 40.5822 28.0381 40.5453 26.2856 39.6606C24.0951 38.5547 22.9998 39.3841 17.7971 39.1076Z" fill="#26A13D"/>
</g>
<path d="M13.987 22.4344V29.762C11.6555 27.7333 10.4746 25.3715 10.4746 22.2225C10.4746 16.2574 15.0468 13.9562 16.3185 13.3203V10.8979C11.8069 12.6844 8.14307 16.5602 8.14307 22.2527C8.14307 27.3397 10.9893 31.7605 16.3185 33.6984V22.4344H13.987Z" fill="#E02307"/>
<path fill-rule="evenodd" clip-rule="evenodd" d="M13.6179 22.0651H16.6879V34.2255L16.1924 34.0453C10.7151 32.0536 7.77393 27.4925 7.77393 22.2526C7.77393 16.3724 11.5672 12.3821 16.1827 10.5545L16.6879 10.3545V13.5484L16.4838 13.6505C15.2207 14.2821 10.844 16.4918 10.844 22.2224C10.844 24.9688 11.7684 27.0832 13.6179 28.9162V22.0651ZM13.9871 29.7619C13.8606 29.6519 13.7376 29.5409 13.6179 29.4288C11.531 27.4747 10.4747 25.2006 10.4747 22.2224C10.4747 16.2573 15.0469 13.9561 16.3186 13.3202V10.8979C16.1949 10.9469 16.0718 10.9974 15.9494 11.0496C11.6088 12.8983 8.14319 16.7163 8.14319 22.2526C8.14319 27.2208 10.8581 31.5536 15.9494 33.5585C16.0711 33.6064 16.1942 33.653 16.3186 33.6983V22.4343H13.9871V29.7619Z" fill="white"/>
<path d="M20.2339 34.3941V24.4384H21.5677V23.2158H17.6616V24.4384H18.9954V34.3941H20.2339Z" fill="white"/>
<path d="M20.9751 30.9326L21.6896 32.0759H22.7376V32.5363C22.7376 33.0762 22.7852 34.3941 24.4207 34.3941H26.2308V33.1715H24.4207C23.9602 33.1715 23.9602 32.9333 23.9602 32.5363V32.0759H26.2308V30.9326H23.9602V24.4384H26.2308V23.2158H22.7376V30.9326H20.9751Z" fill="white"/>
<path d="M31.0261 34.3941C30.2005 33.6796 28.2633 32.0282 28.2633 28.7891C28.2633 25.6293 30.2957 23.8509 31.0261 23.2158H29.2478C27.8981 24.7719 27.0407 26.7249 27.0407 28.7891C27.0407 30.8691 27.8505 32.8539 29.2478 34.3941H31.0261Z" fill="white"/>
<path d="M30.8052 30.9326L31.5197 32.0759H32.5677V34.3941H33.7903V32.0759H35.3622V34.3941H36.5849V23.2158H35.3622V30.9326H33.7903V23.2158H32.5677V30.9326H30.8052Z" fill="white"/>
<path d="M49.5057 32.2451L50.4036 36.1315L50.597 37.2136L50.795 36.1545L51.5594 32.2451H53.0559L53.8617 36.1315L54.0689 37.2136L54.2762 36.1729L55.1833 32.2451H56.6245L54.7136 39.0324H53.3598L52.5402 35.0632L52.3008 33.7509L52.0613 35.0632L51.2417 39.0324H49.9247L48 32.2451H49.5057Z" fill="#E02307"/>
<path d="M59.4656 38.1069C59.8493 38.1069 60.144 37.9703 60.3497 37.6971C60.5554 37.4238 60.6582 37.0355 60.6582 36.5321C60.6582 36.0286 60.5554 35.6418 60.3497 35.3717C60.144 35.0985 59.8493 34.9619 59.4656 34.9619C59.0819 34.9619 58.7857 35.0985 58.5769 35.3717C58.3712 35.6418 58.2684 36.0286 58.2684 36.5321C58.2684 37.0355 58.3712 37.4238 58.5769 37.6971C58.7857 37.9703 59.0819 38.1069 59.4656 38.1069ZM62.035 36.5321C62.035 37.2688 61.8232 37.8997 61.3996 38.4246C60.9759 38.9465 60.3328 39.2074 59.4702 39.2074C58.6076 39.2074 57.9645 38.9465 57.5409 38.4246C57.1172 37.8997 56.9054 37.2688 56.9054 36.5321C56.9054 35.8076 57.1172 35.1798 57.5409 34.6488C57.9645 34.1177 58.6076 33.8522 59.4702 33.8522C60.3328 33.8522 60.9759 34.1177 61.3996 34.6488C61.8232 35.1798 62.035 35.8076 62.035 36.5321Z" fill="#E02307"/>
<path d="M65.7049 33.8936C65.7295 33.8936 65.7494 33.8951 65.7648 33.8982C65.7832 33.8982 65.8216 33.8997 65.8799 33.9028V35.2474C65.797 35.2382 65.7233 35.232 65.6589 35.229C65.5944 35.2259 65.5422 35.2244 65.5023 35.2244C64.9743 35.2244 64.6198 35.3963 64.4386 35.7401C64.3373 35.9335 64.2867 36.2312 64.2867 36.6334V39.0324H62.9651V34.0133H64.2176V34.8882C64.4202 34.5536 64.5967 34.3249 64.7472 34.2021C64.9927 33.9964 65.312 33.8936 65.7049 33.8936Z" fill="#E02307"/>
<path d="M67.9934 39.0324H66.6811V32.2451H67.9934V39.0324Z" fill="#E02307"/>
<path d="M71.1292 33.8936C71.4331 33.8936 71.7033 33.9611 71.9396 34.0962C72.176 34.2282 72.3679 34.4124 72.5152 34.6488V32.2544H73.846V39.0324H72.5705V38.3371C72.3832 38.6349 72.1699 38.8513 71.9304 38.9864C71.691 39.1214 71.3932 39.189 71.0371 39.189C70.4508 39.189 69.9566 38.9526 69.5544 38.4799C69.1553 38.004 68.9558 37.3947 68.9558 36.6518C68.9558 35.7953 69.1523 35.1215 69.5452 34.6304C69.9412 34.1392 70.4692 33.8936 71.1292 33.8936ZM71.4147 38.0839C71.7861 38.0839 72.0686 37.9457 72.262 37.6694C72.4554 37.3932 72.5521 37.0355 72.5521 36.5965C72.5521 35.9826 72.397 35.5436 72.087 35.2796C71.8967 35.12 71.6756 35.0402 71.4239 35.0402C71.0402 35.0402 70.7578 35.186 70.5767 35.4776C70.3986 35.7662 70.3096 36.1253 70.3096 36.5551C70.3096 37.0186 70.4001 37.3901 70.5813 37.6694C70.7654 37.9457 71.0433 38.0839 71.4147 38.0839Z" fill="#E02307"/>
<path d="M77.41 34.0133H78.7407L79.5051 37.628L80.2879 34.0133H81.6555L80.2004 39.0324H78.8512L78.0638 35.3763L77.2672 39.0324H75.9042L74.4952 34.0133H75.9042L76.687 37.6142L77.41 34.0133Z" fill="#E02307"/>
<path d="M83.7322 33.4147H82.4014V32.2037H83.7322V33.4147ZM82.4014 34.0133H83.7322V39.0324H82.4014V34.0133Z" fill="#E02307"/>
<path d="M86.8587 33.8936C87.1626 33.8936 87.4328 33.9611 87.6692 34.0962C87.9055 34.2282 88.0974 34.4124 88.2447 34.6488V32.2544H89.5755V39.0324H88.3V38.3371C88.1127 38.6349 87.8994 38.8513 87.6599 38.9864C87.4205 39.1214 87.1227 39.189 86.7666 39.189C86.1803 39.189 85.6861 38.9526 85.2839 38.4799C84.8849 38.004 84.6853 37.3947 84.6853 36.6518C84.6853 35.7953 84.8818 35.1215 85.2747 34.6304C85.6707 34.1392 86.1987 33.8936 86.8587 33.8936ZM87.1442 38.0839C87.5157 38.0839 87.7981 37.9457 87.9915 37.6694C88.1849 37.3932 88.2816 37.0355 88.2816 36.5965C88.2816 35.9826 88.1265 35.5436 87.8165 35.2796C87.6262 35.12 87.4052 35.0402 87.1534 35.0402C86.7697 35.0402 86.4873 35.186 86.3062 35.4776C86.1281 35.7662 86.0391 36.1253 86.0391 36.5551C86.0391 37.0186 86.1297 37.3901 86.3108 37.6694C86.495 37.9457 86.7728 38.0839 87.1442 38.0839Z" fill="#E02307"/>
<path d="M92.7527 34.9619C92.4488 34.9619 92.2124 35.0571 92.0436 35.2474C91.8778 35.4377 91.7734 35.6956 91.7305 36.021H93.7703C93.7488 35.6741 93.6429 35.4116 93.4526 35.2336C93.2654 35.0524 93.032 34.9619 92.7527 34.9619ZM92.7527 33.8798C93.1702 33.8798 93.5462 33.9581 93.8808 34.1146C94.2154 34.2712 94.4917 34.5183 94.7097 34.856C94.9061 35.1538 95.0335 35.4991 95.0919 35.892C95.1256 36.1223 95.1394 36.4538 95.1333 36.8866H91.6982C91.7167 37.3901 91.8747 37.7431 92.1725 37.9457C92.3536 38.0716 92.5716 38.1345 92.8264 38.1345C93.0965 38.1345 93.316 38.0578 93.4848 37.9043C93.5769 37.8214 93.6583 37.7063 93.7289 37.5589H95.0688C95.0351 37.8567 94.8801 38.1591 94.6038 38.466C94.174 38.9541 93.5723 39.1982 92.7987 39.1982C92.1602 39.1982 91.5969 38.9925 91.1088 38.5812C90.6207 38.1698 90.3767 37.5006 90.3767 36.5735C90.3767 35.7048 90.5962 35.0386 91.0352 34.5751C91.4772 34.1116 92.0497 33.8798 92.7527 33.8798Z" fill="#E02307"/>
<path d="M102.574 34.4047C102.574 34.0517 102.481 33.8 102.294 33.6496C102.109 33.4991 101.85 33.4239 101.515 33.4239H100.194V35.4224H101.515C101.85 35.4224 102.109 35.341 102.294 35.1783C102.481 35.0156 102.574 34.7578 102.574 34.4047ZM103.979 34.3955C103.979 35.1967 103.776 35.7631 103.371 36.0946C102.966 36.4262 102.387 36.5919 101.635 36.5919H100.194V39.0324H98.7848V32.2451H101.741C102.422 32.2451 102.966 32.4201 103.371 32.7701C103.776 33.12 103.979 33.6618 103.979 34.3955Z" fill="#E02307"/>
<path d="M107.704 36.5919C107.621 36.6441 107.537 36.6871 107.451 36.7209C107.368 36.7516 107.253 36.7807 107.105 36.8084L106.811 36.8636C106.534 36.9127 106.336 36.9726 106.217 37.0432C106.014 37.1629 105.913 37.3486 105.913 37.6004C105.913 37.8245 105.974 37.9872 106.097 38.0885C106.223 38.1867 106.375 38.2358 106.553 38.2358C106.835 38.2358 107.095 38.1529 107.331 37.9872C107.57 37.8214 107.695 37.519 107.704 37.08V36.5919ZM106.907 35.9795C107.15 35.9488 107.323 35.9105 107.428 35.8644C107.615 35.7846 107.709 35.6603 107.709 35.4914C107.709 35.2858 107.636 35.1445 107.492 35.0678C107.351 34.988 107.142 34.9481 106.866 34.9481C106.556 34.9481 106.336 35.0248 106.208 35.1783C106.115 35.2919 106.054 35.4454 106.023 35.6388H104.757C104.785 35.1998 104.907 34.8391 105.125 34.5567C105.472 34.1146 106.068 33.8936 106.912 33.8936C107.462 33.8936 107.95 34.0026 108.376 34.2205C108.803 34.4385 109.016 34.8498 109.016 35.4546V37.7569C109.016 37.9165 109.019 38.1099 109.026 38.3371C109.035 38.509 109.061 38.6257 109.104 38.6871C109.147 38.7485 109.211 38.7991 109.297 38.839V39.0324H107.87C107.83 38.9311 107.802 38.8359 107.787 38.7469C107.772 38.6579 107.759 38.5566 107.75 38.443C107.569 38.6395 107.36 38.8068 107.124 38.9449C106.841 39.1076 106.522 39.189 106.166 39.189C105.712 39.189 105.336 39.06 105.038 38.8022C104.743 38.5412 104.596 38.1729 104.596 37.6971C104.596 37.08 104.834 36.6334 105.31 36.3571C105.571 36.2067 105.954 36.0992 106.461 36.0348L106.907 35.9795Z" fill="#E02307"/>
<path d="M112.912 33.8936C112.936 33.8936 112.956 33.8951 112.972 33.8982C112.99 33.8982 113.029 33.8997 113.087 33.9028V35.2474C113.004 35.2382 112.93 35.232 112.866 35.229C112.801 35.2259 112.749 35.2244 112.709 35.2244C112.181 35.2244 111.827 35.3963 111.646 35.7401C111.544 35.9335 111.494 36.2312 111.494 36.6334V39.0324H110.172V34.0133H111.425V34.8882C111.627 34.5536 111.804 34.3249 111.954 34.2021C112.2 33.9964 112.519 33.8936 112.912 33.8936Z" fill="#E02307"/>
<path d="M113.847 32.2682H115.136V35.9243L116.771 34.0364H118.396L116.642 35.9565L118.465 39.0324H116.881L115.679 36.8866L115.136 37.453V39.0324H113.847V32.2682Z" fill="#E02307"/>
<path d="M120.459 33.4147H119.128V32.2037H120.459V33.4147ZM119.128 34.0133H120.459V39.0324H119.128V34.0133Z" fill="#E02307"/>
<path d="M124.516 33.8936C125.034 33.8936 125.458 34.0302 125.787 34.3034C126.118 34.5736 126.284 35.0233 126.284 35.6526V39.0324H124.939V35.9795C124.939 35.7155 124.904 35.5129 124.833 35.3717C124.704 35.1138 124.459 34.9849 124.097 34.9849C123.652 34.9849 123.346 35.1737 123.18 35.5513C123.094 35.7508 123.051 36.0056 123.051 36.3157V39.0324H121.744V34.0225H123.01V34.7547C123.179 34.4968 123.338 34.3111 123.489 34.1975C123.759 33.9949 124.101 33.8936 124.516 33.8936Z" fill="#E02307"/>
<path d="M129.654 37.9549C129.961 37.9549 130.221 37.8398 130.433 37.6096C130.644 37.3763 130.75 37.0064 130.75 36.4998C130.75 36.024 130.649 35.6618 130.446 35.4131C130.247 35.1645 129.978 35.0402 129.641 35.0402C129.18 35.0402 128.862 35.2566 128.687 35.6894C128.595 35.9197 128.549 36.2036 128.549 36.5413C128.549 36.8329 128.598 37.0923 128.697 37.3195C128.875 37.7431 129.194 37.9549 129.654 37.9549ZM129.328 33.8936C129.579 33.8936 129.799 33.932 129.986 34.0087C130.305 34.1407 130.563 34.3832 130.76 34.7363V34.0133H132.035V38.7745C132.035 39.4223 131.926 39.9104 131.708 40.2388C131.334 40.8037 130.615 41.0861 129.553 41.0861C128.912 41.0861 128.388 40.9602 127.983 40.7085C127.578 40.4568 127.354 40.0807 127.311 39.5804H128.738C128.775 39.7339 128.835 39.8444 128.918 39.9119C129.059 40.0316 129.297 40.0915 129.631 40.0915C130.104 40.0915 130.42 39.9334 130.58 39.6172C130.684 39.4146 130.737 39.0739 130.737 38.595V38.2726C130.611 38.4875 130.476 38.6487 130.331 38.7561C130.07 38.9557 129.731 39.0554 129.314 39.0554C128.669 39.0554 128.153 38.8298 127.767 38.3785C127.383 37.9242 127.191 37.3103 127.191 36.5367C127.191 35.7907 127.377 35.1645 127.748 34.658C128.12 34.1484 128.646 33.8936 129.328 33.8936Z" fill="#E02307"/>
<path d="M140.494 32.2451H142.534V39.0324H141.212V34.4416C141.212 34.3096 141.214 34.1254 141.217 33.889C141.22 33.6496 141.221 33.4654 141.221 33.3364L139.937 39.0324H138.56L137.284 33.3364C137.284 33.4654 137.286 33.6496 137.289 33.889C137.292 34.1254 137.294 34.3096 137.294 34.4416V39.0324H135.972V32.2451H138.035L139.269 37.5819L140.494 32.2451Z" fill="#E02307"/>
<path d="M146.512 36.5919C146.429 36.6441 146.345 36.6871 146.259 36.7209C146.176 36.7516 146.061 36.7807 145.914 36.8084L145.619 36.8636C145.343 36.9127 145.145 36.9726 145.025 37.0432C144.822 37.1629 144.721 37.3486 144.721 37.6004C144.721 37.8245 144.782 37.9872 144.905 38.0885C145.031 38.1867 145.183 38.2358 145.361 38.2358C145.643 38.2358 145.903 38.1529 146.139 37.9872C146.379 37.8214 146.503 37.519 146.512 37.08V36.5919ZM145.716 35.9795C145.958 35.9488 146.131 35.9105 146.236 35.8644C146.423 35.7846 146.517 35.6603 146.517 35.4914C146.517 35.2858 146.445 35.1445 146.3 35.0678C146.159 34.988 145.95 34.9481 145.674 34.9481C145.364 34.9481 145.145 35.0248 145.016 35.1783C144.924 35.2919 144.862 35.4454 144.831 35.6388H143.565C143.593 35.1998 143.716 34.8391 143.934 34.5567C144.28 34.1146 144.876 33.8936 145.72 33.8936C146.27 33.8936 146.758 34.0026 147.184 34.2205C147.611 34.4385 147.824 34.8498 147.824 35.4546V37.7569C147.824 37.9165 147.828 38.1099 147.834 38.3371C147.843 38.509 147.869 38.6257 147.912 38.6871C147.955 38.7485 148.019 38.7991 148.105 38.839V39.0324H146.678C146.638 38.9311 146.61 38.8359 146.595 38.7469C146.58 38.6579 146.567 38.5566 146.558 38.443C146.377 38.6395 146.168 38.8068 145.932 38.9449C145.65 39.1076 145.33 39.189 144.974 39.189C144.52 39.189 144.144 39.06 143.846 38.8022C143.551 38.5412 143.404 38.1729 143.404 37.6971C143.404 37.08 143.642 36.6334 144.118 36.3571C144.379 36.2067 144.762 36.0992 145.269 36.0348L145.716 35.9795Z" fill="#E02307"/>
<path d="M151.775 33.8936C152.294 33.8936 152.718 34.0302 153.046 34.3034C153.378 34.5736 153.543 35.0233 153.543 35.6526V39.0324H152.199V35.9795C152.199 35.7155 152.164 35.5129 152.093 35.3717C151.964 35.1138 151.718 34.9849 151.356 34.9849C150.911 34.9849 150.606 35.1737 150.44 35.5513C150.354 35.7508 150.311 36.0056 150.311 36.3157V39.0324H149.003V34.0225H150.27V34.7547C150.438 34.4968 150.598 34.3111 150.748 34.1975C151.019 33.9949 151.361 33.8936 151.775 33.8936Z" fill="#E02307"/>
<path d="M157.526 36.5919C157.444 36.6441 157.359 36.6871 157.273 36.7209C157.19 36.7516 157.075 36.7807 156.928 36.8084L156.633 36.8636C156.357 36.9127 156.159 36.9726 156.039 37.0432C155.837 37.1629 155.735 37.3486 155.735 37.6004C155.735 37.8245 155.797 37.9872 155.919 38.0885C156.045 38.1867 156.197 38.2358 156.375 38.2358C156.658 38.2358 156.917 38.1529 157.153 37.9872C157.393 37.8214 157.517 37.519 157.526 37.08V36.5919ZM156.73 35.9795C156.972 35.9488 157.146 35.9105 157.25 35.8644C157.437 35.7846 157.531 35.6603 157.531 35.4914C157.531 35.2858 157.459 35.1445 157.315 35.0678C157.173 34.988 156.965 34.9481 156.688 34.9481C156.378 34.9481 156.159 35.0248 156.03 35.1783C155.938 35.2919 155.876 35.4454 155.846 35.6388H154.579C154.607 35.1998 154.73 34.8391 154.948 34.5567C155.295 34.1146 155.89 33.8936 156.734 33.8936C157.284 33.8936 157.772 34.0026 158.199 34.2205C158.625 34.4385 158.839 34.8498 158.839 35.4546V37.7569C158.839 37.9165 158.842 38.1099 158.848 38.3371C158.857 38.509 158.883 38.6257 158.926 38.6871C158.969 38.7485 159.034 38.7991 159.12 38.839V39.0324H157.692C157.652 38.9311 157.625 38.8359 157.609 38.7469C157.594 38.6579 157.582 38.5566 157.573 38.443C157.391 38.6395 157.183 38.8068 156.946 38.9449C156.664 39.1076 156.345 39.189 155.989 39.189C155.534 39.189 155.158 39.06 154.86 38.8022C154.566 38.5412 154.418 38.1729 154.418 37.6971C154.418 37.08 154.656 36.6334 155.132 36.3571C155.393 36.2067 155.777 36.0992 156.283 36.0348L156.73 35.9795Z" fill="#E02307"/>
<path d="M162.163 37.9549C162.47 37.9549 162.73 37.8398 162.942 37.6096C163.153 37.3763 163.259 37.0064 163.259 36.4998C163.259 36.024 163.158 35.6618 162.955 35.4131C162.756 35.1645 162.487 35.0402 162.15 35.0402C161.689 35.0402 161.371 35.2566 161.196 35.6894C161.104 35.9197 161.058 36.2036 161.058 36.5413C161.058 36.8329 161.107 37.0923 161.206 37.3195C161.384 37.7431 161.703 37.9549 162.163 37.9549ZM161.836 33.8936C162.088 33.8936 162.308 33.932 162.495 34.0087C162.814 34.1407 163.072 34.3832 163.268 34.7363V34.0133H164.544V38.7745C164.544 39.4223 164.435 39.9104 164.217 40.2388C163.843 40.8037 163.124 41.0861 162.062 41.0861C161.42 41.0861 160.897 40.9602 160.492 40.7085C160.087 40.4568 159.863 40.0807 159.82 39.5804H161.247C161.284 39.7339 161.344 39.8444 161.427 39.9119C161.568 40.0316 161.806 40.0915 162.14 40.0915C162.613 40.0915 162.929 39.9334 163.089 39.6172C163.193 39.4146 163.245 39.0739 163.245 38.595V38.2726C163.12 38.4875 162.985 38.6487 162.84 38.7561C162.579 38.9557 162.24 39.0554 161.823 39.0554C161.178 39.0554 160.662 38.8298 160.275 38.3785C159.892 37.9242 159.7 37.3103 159.7 36.5367C159.7 35.7907 159.886 35.1645 160.257 34.658C160.628 34.1484 161.155 33.8936 161.836 33.8936Z" fill="#E02307"/>
<path d="M167.753 34.9619C167.45 34.9619 167.213 35.0571 167.044 35.2474C166.879 35.4377 166.774 35.6956 166.731 36.021H168.771C168.75 35.6741 168.644 35.4116 168.453 35.2336C168.266 35.0524 168.033 34.9619 167.753 34.9619ZM167.753 33.8798C168.171 33.8798 168.547 33.9581 168.882 34.1146C169.216 34.2712 169.492 34.5183 169.71 34.856C169.907 35.1538 170.034 35.4991 170.093 35.892C170.126 36.1223 170.14 36.4538 170.134 36.8866H166.699C166.717 37.3901 166.875 37.7431 167.173 37.9457C167.354 38.0716 167.572 38.1345 167.827 38.1345C168.097 38.1345 168.317 38.0578 168.486 37.9043C168.578 37.8214 168.659 37.7063 168.73 37.5589H170.07C170.036 37.8567 169.881 38.1591 169.604 38.466C169.175 38.9541 168.573 39.1982 167.799 39.1982C167.161 39.1982 166.598 38.9925 166.11 38.5812C165.621 38.1698 165.377 37.5006 165.377 36.5735C165.377 35.7048 165.597 35.0386 166.036 34.5751C166.478 34.1116 167.05 33.8798 167.753 33.8798Z" fill="#E02307"/>
<path d="M176.631 33.9028C176.852 33.9028 177.07 33.9458 177.285 34.0317C177.5 34.1177 177.695 34.2681 177.87 34.483C178.011 34.658 178.106 34.8729 178.155 35.1277C178.186 35.2965 178.201 35.5436 178.201 35.869L178.192 39.0324H176.848V35.8368C176.848 35.6465 176.817 35.4899 176.756 35.3671C176.639 35.1338 176.424 35.0171 176.111 35.0171C175.749 35.0171 175.498 35.1676 175.36 35.4684C175.29 35.628 175.254 35.8199 175.254 36.044V39.0324H173.933V36.044C173.933 35.7462 173.902 35.5298 173.841 35.3947C173.73 35.1522 173.514 35.031 173.192 35.031C172.817 35.031 172.565 35.1522 172.436 35.3947C172.366 35.5329 172.33 35.7385 172.33 36.0118V39.0324H171V34.0225H172.275V34.7547C172.438 34.4938 172.591 34.308 172.736 34.1975C172.99 34.0011 173.32 33.9028 173.726 33.9028C174.109 33.9028 174.419 33.9872 174.656 34.1561C174.846 34.3126 174.99 34.5137 175.089 34.7593C175.261 34.4646 175.474 34.2482 175.729 34.11C175.999 33.9719 176.3 33.9028 176.631 33.9028Z" fill="#E02307"/>
<path d="M181.392 34.9619C181.089 34.9619 180.852 35.0571 180.683 35.2474C180.518 35.4377 180.413 35.6956 180.37 36.021H182.41C182.389 35.6741 182.283 35.4116 182.092 35.2336C181.905 35.0524 181.672 34.9619 181.392 34.9619ZM181.392 33.8798C181.81 33.8798 182.186 33.9581 182.521 34.1146C182.855 34.2712 183.131 34.5183 183.349 34.856C183.546 35.1538 183.673 35.4991 183.732 35.892C183.765 36.1223 183.779 36.4538 183.773 36.8866H180.338C180.356 37.3901 180.514 37.7431 180.812 37.9457C180.993 38.0716 181.211 38.1345 181.466 38.1345C181.736 38.1345 181.956 38.0578 182.125 37.9043C182.217 37.8214 182.298 37.7063 182.369 37.5589H183.709C183.675 37.8567 183.52 38.1591 183.243 38.466C182.814 38.9541 182.212 39.1982 181.438 39.1982C180.8 39.1982 180.237 38.9925 179.749 38.5812C179.26 38.1698 179.016 37.5006 179.016 36.5735C179.016 35.7048 179.236 35.0386 179.675 34.5751C180.117 34.1116 180.689 33.8798 181.392 33.8798Z" fill="#E02307"/>
<path d="M187.443 33.8936C187.962 33.8936 188.385 34.0302 188.714 34.3034C189.045 34.5736 189.211 35.0233 189.211 35.6526V39.0324H187.867V35.9795C187.867 35.7155 187.831 35.5129 187.761 35.3717C187.632 35.1138 187.386 34.9849 187.024 34.9849C186.579 34.9849 186.273 35.1737 186.108 35.5513C186.022 35.7508 185.979 36.0056 185.979 36.3157V39.0324H184.671V34.0225H185.937V34.7547C186.106 34.4968 186.266 34.3111 186.416 34.1975C186.686 33.9949 187.029 33.8936 187.443 33.8936Z" fill="#E02307"/>
<path d="M189.911 34.9941V34.0594H190.611V32.6596H191.909V34.0594H192.724V34.9941H191.909V37.6464C191.909 37.8521 191.936 37.981 191.988 38.0332C192.04 38.0823 192.2 38.1069 192.467 38.1069C192.507 38.1069 192.548 38.1069 192.591 38.1069C192.637 38.1038 192.682 38.1007 192.724 38.0977V39.0785L192.103 39.1015C191.483 39.123 191.059 39.0155 190.832 38.7792C190.685 38.6287 190.611 38.397 190.611 38.0839V34.9941H189.911Z" fill="#E02307"/>
<path d="M196.09 37.2412C196.09 36.8329 196.192 36.483 196.394 36.1913C196.597 35.8997 196.929 35.6111 197.389 35.3257L197.532 35.2382C197.335 35.0171 197.183 34.7915 197.076 34.5613C196.968 34.3311 196.915 34.0916 196.915 33.843C196.915 33.3487 197.081 32.9635 197.412 32.6872C197.744 32.4078 198.173 32.2682 198.701 32.2682C199.183 32.2682 199.581 32.4109 199.894 32.6964C200.21 32.9788 200.368 33.3411 200.368 33.7831C200.368 34.1822 200.273 34.506 200.083 34.7547C199.895 35.0033 199.619 35.2336 199.254 35.4454L200.216 36.6334C200.327 36.4738 200.411 36.3003 200.47 36.1131C200.531 35.9258 200.563 35.7278 200.566 35.5191H201.731C201.713 35.9304 201.615 36.3464 201.437 36.7669C201.338 37.0033 201.179 37.2642 200.958 37.5497L202.192 39.0324H200.598L200.129 38.4568C199.902 38.6686 199.69 38.8252 199.493 38.9265C199.143 39.1076 198.74 39.1982 198.282 39.1982C197.595 39.1982 197.057 38.9956 196.671 38.5904C196.284 38.1852 196.09 37.7354 196.09 37.2412ZM198.121 33.7969C198.121 33.9197 198.164 34.0486 198.25 34.1837C198.305 34.2727 198.425 34.4308 198.609 34.658C198.793 34.5291 198.925 34.4201 199.005 34.3311C199.159 34.1653 199.235 33.9857 199.235 33.7923C199.235 33.6511 199.189 33.5252 199.097 33.4147C199.005 33.3042 198.866 33.249 198.678 33.249C198.562 33.249 198.453 33.2812 198.351 33.3457C198.198 33.4408 198.121 33.5912 198.121 33.7969ZM197.398 37.1998C197.398 37.4238 197.489 37.6295 197.67 37.8168C197.854 38.004 198.089 38.0977 198.374 38.0977C198.589 38.0977 198.792 38.0485 198.982 37.9503C199.176 37.849 199.332 37.737 199.452 37.6142L198.209 36.0762C197.88 36.2942 197.662 36.486 197.555 36.6518C197.45 36.8176 197.398 37.0002 197.398 37.1998Z" fill="#E02307"/>
<path d="M205.443 35.694C205.443 34.5091 205.76 33.5958 206.396 32.9543C206.948 32.3956 207.651 32.1162 208.505 32.1162C209.647 32.1162 210.482 32.4907 211.01 33.2397C211.301 33.6603 211.458 34.0824 211.479 34.506H210.061C209.969 34.1806 209.851 33.9351 209.706 33.7693C209.449 33.4746 209.066 33.3272 208.56 33.3272C208.044 33.3272 207.637 33.536 207.34 33.9535C207.042 34.3679 206.893 34.9558 206.893 35.7171C206.893 36.4784 207.05 37.0493 207.363 37.43C207.679 37.8076 208.08 37.9964 208.565 37.9964C209.062 37.9964 209.441 37.8337 209.702 37.5083C209.846 37.3333 209.966 37.0708 210.061 36.7209H211.465C211.343 37.4607 211.028 38.0624 210.521 38.5259C210.018 38.9894 209.372 39.2212 208.583 39.2212C207.607 39.2212 206.839 38.9081 206.281 38.2819C205.722 37.6525 205.443 36.7899 205.443 35.694Z" fill="#E02307"/>
<path d="M214.698 38.1069C215.082 38.1069 215.376 37.9703 215.582 37.6971C215.788 37.4238 215.891 37.0355 215.891 36.5321C215.891 36.0286 215.788 35.6418 215.582 35.3717C215.376 35.0985 215.082 34.9619 214.698 34.9619C214.314 34.9619 214.018 35.0985 213.809 35.3717C213.604 35.6418 213.501 36.0286 213.501 36.5321C213.501 37.0355 213.604 37.4238 213.809 37.6971C214.018 37.9703 214.314 38.1069 214.698 38.1069ZM217.267 36.5321C217.267 37.2688 217.056 37.8997 216.632 38.4246C216.208 38.9465 215.565 39.2074 214.703 39.2074C213.84 39.2074 213.197 38.9465 212.773 38.4246C212.35 37.8997 212.138 37.2688 212.138 36.5321C212.138 35.8076 212.35 35.1798 212.773 34.6488C213.197 34.1177 213.84 33.8522 214.703 33.8522C215.565 33.8522 216.208 34.1177 216.632 34.6488C217.056 35.1798 217.267 35.8076 217.267 36.5321Z" fill="#E02307"/>
<path d="M220.993 33.8936C221.511 33.8936 221.935 34.0302 222.263 34.3034C222.595 34.5736 222.761 35.0233 222.761 35.6526V39.0324H221.416V35.9795C221.416 35.7155 221.381 35.5129 221.31 35.3717C221.181 35.1138 220.936 34.9849 220.573 34.9849C220.128 34.9849 219.823 35.1737 219.657 35.5513C219.571 35.7508 219.528 36.0056 219.528 36.3157V39.0324H218.22V34.0225H219.487V34.7547C219.656 34.4968 219.815 34.3111 219.966 34.1975C220.236 33.9949 220.578 33.8936 220.993 33.8936Z" fill="#E02307"/>
<path d="M224.999 37.43C225.026 37.6633 225.086 37.8291 225.178 37.9273C225.341 38.1023 225.642 38.1898 226.081 38.1898C226.339 38.1898 226.543 38.1514 226.693 38.0746C226.847 37.9979 226.923 37.8828 226.923 37.7293C226.923 37.5819 226.862 37.4699 226.739 37.3932C226.616 37.3164 226.16 37.1844 225.372 36.9972C224.804 36.8559 224.403 36.6794 224.17 36.4676C223.936 36.2589 223.82 35.958 223.82 35.5651C223.82 35.1016 224.001 34.704 224.363 34.3725C224.728 34.0379 225.241 33.8706 225.901 33.8706C226.527 33.8706 227.037 33.9964 227.43 34.2482C227.826 34.4968 228.053 34.9281 228.111 35.5421H226.799C226.781 35.3732 226.733 35.2397 226.656 35.1415C226.512 34.9634 226.266 34.8744 225.919 34.8744C225.634 34.8744 225.43 34.9189 225.307 35.0079C225.187 35.097 225.127 35.2013 225.127 35.3211C225.127 35.4715 225.192 35.5804 225.321 35.648C225.45 35.7186 225.906 35.8398 226.688 36.0118C227.21 36.1345 227.602 36.3203 227.863 36.5689C228.121 36.8206 228.249 37.1353 228.249 37.5129C228.249 38.0102 228.064 38.4169 227.692 38.7331C227.324 39.0462 226.753 39.2028 225.979 39.2028C225.19 39.2028 224.607 39.037 224.23 38.7055C223.855 38.3709 223.668 37.9457 223.668 37.43H224.999Z" fill="#E02307"/>
<path d="M230.533 34.0133V37.0386C230.533 37.3241 230.567 37.539 230.635 37.6832C230.754 37.938 230.989 38.0654 231.339 38.0654C231.787 38.0654 232.094 37.8843 232.26 37.5221C232.346 37.3256 232.389 37.0662 232.389 36.7439V34.0133H233.72V39.0324H232.444V38.3233C232.432 38.3386 232.401 38.3847 232.352 38.4614C232.303 38.5382 232.245 38.6057 232.177 38.664C231.972 38.8482 231.772 38.9741 231.579 39.0416C231.388 39.1092 231.164 39.1429 230.906 39.1429C230.163 39.1429 229.663 38.8759 229.405 38.3417C229.261 38.047 229.189 37.6126 229.189 37.0386V34.0133H230.533Z" fill="#E02307"/>
<path d="M236.331 39.0324H235.018V32.2451H236.331V39.0324Z" fill="#E02307"/>
<path d="M237.1 34.9941V34.0594H237.8V32.6596H239.098V34.0594H239.913V34.9941H239.098V37.6464C239.098 37.8521 239.124 37.981 239.176 38.0332C239.228 38.0823 239.388 38.1069 239.655 38.1069C239.695 38.1069 239.737 38.1069 239.78 38.1069C239.826 38.1038 239.87 38.1007 239.913 38.0977V39.0785L239.291 39.1015C238.671 39.123 238.248 39.0155 238.021 38.7792C237.873 38.6287 237.8 38.397 237.8 38.0839V34.9941H237.1Z" fill="#E02307"/>
<path d="M243.523 36.5919C243.44 36.6441 243.356 36.6871 243.27 36.7209C243.187 36.7516 243.072 36.7807 242.924 36.8084L242.63 36.8636C242.354 36.9127 242.156 36.9726 242.036 37.0432C241.833 37.1629 241.732 37.3486 241.732 37.6004C241.732 37.8245 241.793 37.9872 241.916 38.0885C242.042 38.1867 242.194 38.2358 242.372 38.2358C242.654 38.2358 242.914 38.1529 243.15 37.9872C243.39 37.8214 243.514 37.519 243.523 37.08V36.5919ZM242.727 35.9795C242.969 35.9488 243.142 35.9105 243.247 35.8644C243.434 35.7846 243.528 35.6603 243.528 35.4914C243.528 35.2858 243.456 35.1445 243.311 35.0678C243.17 34.988 242.961 34.9481 242.685 34.9481C242.375 34.9481 242.156 35.0248 242.027 35.1783C241.935 35.2919 241.873 35.4454 241.842 35.6388H240.576C240.604 35.1998 240.727 34.8391 240.944 34.5567C241.291 34.1146 241.887 33.8936 242.731 33.8936C243.281 33.8936 243.769 34.0026 244.195 34.2205C244.622 34.4385 244.835 34.8498 244.835 35.4546V37.7569C244.835 37.9165 244.839 38.1099 244.845 38.3371C244.854 38.509 244.88 38.6257 244.923 38.6871C244.966 38.7485 245.03 38.7991 245.116 38.839V39.0324H243.689C243.649 38.9311 243.621 38.8359 243.606 38.7469C243.591 38.6579 243.578 38.5566 243.569 38.443C243.388 38.6395 243.179 38.8068 242.943 38.9449C242.66 39.1076 242.341 39.189 241.985 39.189C241.531 39.189 241.155 39.06 240.857 38.8022C240.562 38.5412 240.415 38.1729 240.415 37.6971C240.415 37.08 240.653 36.6334 241.129 36.3571C241.39 36.2067 241.773 36.0992 242.28 36.0348L242.727 35.9795Z" fill="#E02307"/>
<path d="M248.786 33.8936C249.305 33.8936 249.729 34.0302 250.057 34.3034C250.389 34.5736 250.554 35.0233 250.554 35.6526V39.0324H249.21V35.9795C249.21 35.7155 249.175 35.5129 249.104 35.3717C248.975 35.1138 248.729 34.9849 248.367 34.9849C247.922 34.9849 247.617 35.1737 247.451 35.5513C247.365 35.7508 247.322 36.0056 247.322 36.3157V39.0324H246.014V34.0225H247.281V34.7547C247.449 34.4968 247.609 34.3111 247.759 34.1975C248.03 33.9949 248.372 33.8936 248.786 33.8936Z" fill="#E02307"/>
<path d="M251.254 34.9941V34.0594H251.954V32.6596H253.253V34.0594H254.068V34.9941H253.253V37.6464C253.253 37.8521 253.279 37.981 253.331 38.0332C253.383 38.0823 253.543 38.1069 253.81 38.1069C253.85 38.1069 253.891 38.1069 253.934 38.1069C253.98 38.1038 254.025 38.1007 254.068 38.0977V39.0785L253.446 39.1015C252.826 39.123 252.402 39.0155 252.175 38.7792C252.028 38.6287 251.954 38.397 251.954 38.0839V34.9941H251.254Z" fill="#E02307"/>
<path d="M63.7066 10.8794C63.3843 9.48875 62.5969 8.51717 61.3444 7.96461C60.6445 7.6607 59.8663 7.50875 59.0098 7.50875C57.3706 7.50875 56.0214 8.13038 54.9623 9.37364C53.9125 10.6077 53.3875 12.468 53.3875 14.9545C53.3875 17.4594 53.9585 19.2322 55.1005 20.2729C56.2424 21.3135 57.5409 21.8338 58.996 21.8338C60.4235 21.8338 61.593 21.424 62.5048 20.6044C63.4165 19.7756 63.9783 18.6935 64.1901 17.3581H59.4795V13.9599H67.9613V24.8867H65.1432L64.715 22.345C63.8954 23.3119 63.1586 23.9934 62.5048 24.3894C61.3812 25.0801 59.9998 25.4255 58.3606 25.4255C55.6622 25.4255 53.452 24.4907 51.7299 22.6212C49.934 20.7425 49.0361 18.1731 49.0361 14.913C49.0361 11.6161 49.9433 8.97303 51.7575 6.98382C53.5717 4.99461 55.9708 4 58.9546 4C61.5424 4 63.6191 4.65847 65.1847 5.9754C66.7595 7.28312 67.662 8.91778 67.8922 10.8794H63.7066Z" fill="white"/>
<path d="M71.6496 20.7702H75.8353V24.8867H71.6496V20.7702Z" fill="white"/>
<path d="M102.579 4.52493V8.13038H96.4872V24.8867H92.2048V8.13038H86.0852V4.52493H102.579Z" fill="white"/>
<path d="M108.602 12.6752C107.69 12.6752 106.981 12.9607 106.475 13.5316C105.977 14.1026 105.664 14.8762 105.535 15.8524H111.655C111.59 14.8117 111.273 14.0243 110.702 13.4902C110.14 12.9469 109.44 12.6752 108.602 12.6752ZM108.602 9.42889C109.854 9.42889 110.983 9.66373 111.986 10.1334C112.99 10.6031 113.819 11.3444 114.473 12.3575C115.062 13.2508 115.445 14.2868 115.62 15.4656C115.721 16.1563 115.762 17.1509 115.744 18.4494H105.439C105.494 19.9597 105.968 21.0188 106.861 21.6266C107.405 22.0042 108.059 22.193 108.823 22.193C109.633 22.193 110.292 21.9628 110.798 21.5023C111.075 21.2537 111.319 20.9083 111.531 20.4663H115.55C115.449 21.3596 114.984 22.2667 114.155 23.1876C112.866 24.6519 111.061 25.384 108.74 25.384C106.825 25.384 105.135 24.767 103.67 23.533C102.206 22.2989 101.474 20.2913 101.474 17.5101C101.474 14.9038 102.132 12.9054 103.449 11.5148C104.776 10.1242 106.493 9.42889 108.602 9.42889Z" fill="white"/>
<path d="M127.403 15.2308C127.329 14.669 127.14 14.1625 126.836 13.7112C126.394 13.1034 125.708 12.7995 124.778 12.7995C123.452 12.7995 122.545 13.458 122.057 14.7749C121.799 15.4748 121.67 16.405 121.67 17.5653C121.67 18.6704 121.799 19.5591 122.057 20.2314C122.527 21.4839 123.411 22.1101 124.709 22.1101C125.63 22.1101 126.284 21.8615 126.671 21.3642C127.057 20.8669 127.292 20.2222 127.375 19.4302H131.395C131.303 20.6274 130.87 21.7602 130.097 22.8285C128.863 24.5506 127.034 25.4117 124.612 25.4117C122.19 25.4117 120.408 24.6933 119.266 23.2567C118.124 21.82 117.553 19.9551 117.553 17.662C117.553 15.0742 118.184 13.062 119.446 11.6253C120.708 10.1887 122.448 9.47033 124.668 9.47033C126.556 9.47033 128.098 9.89396 129.295 10.7412C130.502 11.5885 131.215 13.085 131.437 15.2308H127.403Z" fill="white"/>
<path d="M142.46 9.44271C143.39 9.44271 144.233 9.60387 144.988 9.9262C145.752 10.2485 146.379 10.7412 146.867 11.4043C147.281 11.9661 147.534 12.5462 147.627 13.1449C147.719 13.7342 147.765 14.7012 147.765 16.0458V24.8867H143.745V15.7281C143.745 14.9176 143.607 14.2638 143.33 13.7665C142.971 13.0666 142.29 12.7166 141.286 12.7166C140.245 12.7166 139.453 13.0666 138.91 13.7665C138.376 14.4572 138.109 15.4472 138.109 16.7365V24.8867H134.185V4.594H138.109V11.7911C138.68 10.9162 139.338 10.3084 140.084 9.96764C140.839 9.61768 141.631 9.44271 142.46 9.44271Z" fill="white"/>
<path d="M171.11 11.0037C171.11 9.94461 170.829 9.18945 170.268 8.73819C169.715 8.28694 168.937 8.06131 167.933 8.06131H163.968V14.0566H167.933C168.937 14.0566 169.715 13.8125 170.268 13.3244C170.829 12.8363 171.11 12.0628 171.11 11.0037ZM175.324 10.9761C175.324 13.3797 174.716 15.0788 173.5 16.0734C172.284 17.068 170.548 17.5653 168.292 17.5653H163.968V24.8867H159.741V4.52493H168.61C170.654 4.52493 172.284 5.04986 173.5 6.09972C174.716 7.14959 175.324 8.77503 175.324 10.9761Z" fill="white"/>
<path d="M176.65 12.7719V9.96764H178.749V5.76819H182.645V9.96764H185.09V12.7719H182.645V20.7287C182.645 21.3458 182.723 21.7325 182.88 21.8891C183.036 22.0364 183.515 22.1101 184.316 22.1101C184.436 22.1101 184.56 22.1101 184.689 22.1101C184.828 22.1009 184.961 22.0917 185.09 22.0825V25.0249L183.225 25.0939C181.365 25.1584 180.094 24.8361 179.412 24.127C178.97 23.6757 178.749 22.9804 178.749 22.0411V12.7719H176.65Z" fill="white"/>
<path d="M193.558 12.6752C192.646 12.6752 191.937 12.9607 191.431 13.5316C190.933 14.1026 190.62 14.8762 190.491 15.8524H196.611C196.546 14.8117 196.229 14.0243 195.658 13.4902C195.096 12.9469 194.396 12.6752 193.558 12.6752ZM193.558 9.42889C194.81 9.42889 195.939 9.66373 196.942 10.1334C197.946 10.6031 198.775 11.3444 199.429 12.3575C200.018 13.2508 200.401 14.2868 200.575 15.4656C200.677 16.1563 200.718 17.1509 200.7 18.4494H190.395C190.45 19.9597 190.924 21.0188 191.817 21.6266C192.361 22.0042 193.015 22.193 193.779 22.193C194.589 22.193 195.248 21.9628 195.754 21.5023C196.031 21.2537 196.275 20.9083 196.487 20.4663H200.506C200.405 21.3596 199.94 22.2667 199.111 23.1876C197.822 24.6519 196.017 25.384 193.696 25.384C191.781 25.384 190.091 24.767 188.626 23.533C187.162 22.2989 186.43 20.2913 186.43 17.5101C186.43 14.9038 187.088 12.9054 188.405 11.5148C189.732 10.1242 191.449 9.42889 193.558 9.42889Z" fill="white"/>
<path d="M211.558 4.52493H215.812V21.226H225.897V24.8867H211.558V4.52493Z" fill="white"/>
<path d="M226.988 12.7719V9.96764H229.088V5.76819H232.983V9.96764H235.428V12.7719H232.983V20.7287C232.983 21.3458 233.061 21.7325 233.218 21.8891C233.374 22.0364 233.853 22.1101 234.655 22.1101C234.774 22.1101 234.899 22.1101 235.028 22.1101C235.166 22.1009 235.299 22.0917 235.428 22.0825V25.0249L233.563 25.0939C231.703 25.1584 230.432 24.8361 229.751 24.127C229.309 23.6757 229.088 22.9804 229.088 22.0411V12.7719H226.988Z" fill="white"/>
<path d="M243.509 9.47033C244.421 9.47033 245.231 9.67294 245.941 10.0781C246.65 10.4742 247.225 11.0267 247.667 11.7358V4.55256H251.66V24.8867H247.833V22.8008C247.271 23.6941 246.631 24.3434 245.913 24.7486C245.195 25.1538 244.301 25.3564 243.233 25.3564C241.474 25.3564 239.991 24.6473 238.785 23.2291C237.588 21.8016 236.989 19.9736 236.989 17.7449C236.989 15.1755 237.579 13.1541 238.757 11.6806C239.945 10.2071 241.529 9.47033 243.509 9.47033ZM244.366 22.0411C245.48 22.0411 246.327 21.6266 246.908 20.7978C247.488 19.969 247.778 18.8961 247.778 17.5791C247.778 15.7373 247.313 14.4203 246.383 13.6283C245.812 13.1495 245.149 12.91 244.393 12.91C243.242 12.91 242.395 13.3475 241.852 14.2223C241.318 15.088 241.05 16.1655 241.05 17.4548C241.05 18.8454 241.322 19.9597 241.865 20.7978C242.418 21.6266 243.251 22.0411 244.366 22.0411Z" fill="white"/>
<defs>
<radialGradient id="paint0_radial_637_2" cx="0" cy="0" r="1" gradientUnits="userSpaceOnUse" gradientTransform="translate(22.2903 22.2903) rotate(90) scale(21.2903)">
<stop stop-color="white" stop-opacity="0.52"/>
<stop offset="0.552083" stop-color="white" stop-opacity="0"/>
</radialGradient>
</defs>
</svg>
